# xmcd
#
# Track frame offsets:
# 150
# 16645
# 32210
# 49292
# 70535
# 86630
# 103660
# 121275
# 142662
# 157962
# 182075
#
# Disc length: 2694 seconds
#
#
# Revision: 0
# Processed by: cddbd v1.4PL0 Copyright (c) Steve Scherf et al.
# Submitted via: FreeRIP 2.30 
#
DISCID=820a840b
DTITLE=Usher - My Way
DYEAR=1997
DGENRE=Soul
TTITLE0=You make me Wanna...
TTITLE1=Just Like Me
TTITLE2=Nice and Slow
TTITLE3=Slow Jam (Featuring Monica)
TTITLE4=My Way
TTITLE5=Come Back
TTITLE6=I Will
TTITLE7=Bedtime
TTITLE8=One Day You'll Be Mine
TTITLE9=You Make Me Wanna... (Extended Version)
TTITLE10=You Make Me Wanna... (Timbaland's Remix)
EXTD=
EXTT0=
EXTT1=
EXTT2=
EXTT3=
EXTT4=
EXTT5=
EXTT6=
EXTT7=
EXTT8=
EXTT9=
EXTT10=
PLAYORDER=
